<svg width="20" height="20" viewBox="0 0 20 20" fill="none" xmlns="http://www.w3.org/2000/svg">
<path d="M4.16602 9.16685H8.38352C9.02352 9.16685 9.66352 8.92268 10.151 8.43435C11.1277 7.45768 11.1277 5.87518 10.151 4.89852C9.17435 3.92185 7.59185 3.92185 6.61518 4.89852" stroke="#717171" stroke-width="1.25" stroke-linecap="round" stroke-linejoin="round"/>
<path d="M2.5 12.5H9.72083C10.2542 12.5 10.7875 12.7033 11.1942 13.11C12.0075 13.9233 12.0075 15.2425 11.1942 16.0567C10.3808 16.8708 9.06167 16.87 8.2475 16.0567" stroke="#717171" stroke-width="1.25" stroke-linecap="round" stroke-linejoin="round"/>
<path d="M12.5 10.8339H15.5475C16.0475 10.8339 16.5467 10.6431 16.9283 10.2623C17.6908 9.49975 17.6908 8.26309 16.9283 7.50059C16.1658 6.73809 14.9292 6.73809 14.1667 7.50059" stroke="#717171" stroke-width="1.25" stroke-linecap="round" stroke-linejoin="round"/>
</svg>
