<svg width="22" height="22" viewBox="0 0 22 22" fill="none" xmlns="http://www.w3.org/2000/svg">
<path fill-rule="evenodd" clip-rule="evenodd" d="M4.32977 9.75H14.3339C14.7944 9.75 15.1676 10.1233 15.1676 10.5837V13.0847C15.1676 15.8473 12.9281 18.0868 10.1655 18.0868H8.49818C5.7356 18.0868 3.49609 15.8473 3.49609 13.0847V10.5837C3.49609 10.1233 3.86935 9.75 4.32977 9.75Z" stroke="#717171" stroke-width="1.25" stroke-linecap="round" stroke-linejoin="round"/>
<path d="M12.2489 7.24848C11.6931 6.6649 11.6931 5.74786 12.2489 5.16428C12.8047 4.5807 12.8047 3.66365 12.2489 3.08008" stroke="#717171" stroke-width="1.25" stroke-linecap="round" stroke-linejoin="round"/>
<path d="M9.3309 7.24848C8.77512 6.6649 8.77512 5.74786 9.3309 5.16428C9.88669 4.5807 9.88669 3.66366 9.3309 3.08008" stroke="#717171" stroke-width="1.25" stroke-linecap="round" stroke-linejoin="round"/>
<path d="M6.41293 7.24848C5.85715 6.66491 5.85715 5.74785 6.41293 5.16428C6.96872 4.5807 6.96872 3.66366 6.41293 3.08008" stroke="#717171" stroke-width="1.25" stroke-linecap="round" stroke-linejoin="round"/>
<path d="M14.4394 15.6816L15.9782 15.3294C17.4545 14.9916 18.5013 13.6782 18.5013 12.1638V12.1638C18.5013 11.5236 18.247 10.9097 17.7943 10.457C17.3416 10.0043 16.7276 9.75 16.0875 9.75H13.916" stroke="#717171" stroke-width="1.25" stroke-linecap="round" stroke-linejoin="round"/>
</svg>
