<svg width="20" height="20" viewBox="0 0 20 20" fill="none" xmlns="http://www.w3.org/2000/svg">
<path fill-rule="evenodd" clip-rule="evenodd" d="M2.5 5.6665V5.6665C2.5 6.1665 2.75 6.58317 3.16667 6.9165L8.16667 10.3332C9.33333 11.0832 10.75 11.0832 11.9167 10.3332L16.9167 6.99984C17.25 6.58317 17.5 6.1665 17.5 5.6665V5.6665C17.5 4.83317 16.8333 4.1665 16 4.1665H4C3.16667 4.1665 2.5 4.83317 2.5 5.6665Z" stroke="white" stroke-linecap="round" stroke-linejoin="round"/>
<path d="M2.5 5.8335V14.1668C2.5 15.0835 3.25 15.8335 4.16667 15.8335H15.8333C16.75 15.8335 17.5 15.0835 17.5 14.1668V5.8335" stroke="white" stroke-linecap="round" stroke-linejoin="round"/>
<path d="M2.99023 15.343L8.06857 10.2646" stroke="white" stroke-linecap="round" stroke-linejoin="round"/>
<path d="M11.9648 10.2998L17.0082 15.3431" stroke="white" stroke-linecap="round" stroke-linejoin="round"/>
</svg>
