<?xml version="1.0" encoding="UTF-8"?>
<svg width="48px" height="104px" viewBox="0 0 48 104" version="1.1" xmlns="http://www.w3.org/2000/svg" xmlns:xlink="http://www.w3.org/1999/xlink">
    <!-- Generator: Sketch 64 (93537) - https://sketch.com -->
    <title>33</title>
    <desc>Created with Sketch.</desc>
    <g id="33" stroke="none" stroke-width="1" fill="none" fill-rule="evenodd">
        <g id="int_3" transform="translate(24.000000, 52.000000) scale(-1, 1) translate(-24.000000, -52.000000) ">
            <g id="zugende_li">
                <g id="Planzeichnung/Treppen-links-unten" transform="translate(9.000000, 83.820831)">
                    <g id="Treppen-lu" transform="translate(16.000000, 9.000000) scale(-1, -1) translate(-16.000000, -9.000000) ">
                        <g id="Group-4" transform="translate(1.000000, 8.000000)"></g>
                        <polygon id="Path-lu" stroke="#666666" transform="translate(15.973765, 8.983134) rotate(3.000000) translate(-15.973765, -8.983134) " points="1 1 30.270511 2.52331246 30.6085049 8.97262072 30.9475291 15.4415875 1.85489863 16.9662677 1.37910952 7.88767061"></polygon>
                        <rect id="Quer-lu" fill="#666666" x="1.74447206" y="8.16234077" width="29.129363" height="1"></rect>
                    </g>
                </g>
                <g id="Planzeichnung/Treppen-links-oben" transform="translate(9.000000, 2.260000)">
                    <g id="Treppen-links-oben" transform="translate(16.000000, 9.000000) scale(-1, 1) translate(-16.000000, -9.000000) ">
                        <g id="Treppen">
                            <polygon id="Path-lo" stroke="#666666" transform="translate(15.973765, 8.983134) rotate(3.000000) translate(-15.973765, -8.983134) " points="1 1 30.270511 2.52331246 30.6085049 8.97262072 30.9475291 15.4415875 1.85489863 16.9662677 1.37910952 7.88767061"></polygon>
                            <rect id="Quer-lo" fill="#666666" x="1.45644311" y="8.16234077" width="29" height="1"></rect>
                        </g>
                    </g>
                </g>
                <g id="Group-6" stroke="#666666" stroke-width="2">
                    <path d="M1.00084299,1.12357458 L1.07716585,102.884447 L47,97.8489644 L47,6.49125544 L1.00084299,1.12357458 Z" id="Train-Back" transform="translate(24.000000, 52.000000) scale(-1, 1) translate(-24.000000, -52.000000) "></path>
                </g>
            </g>
        </g>
        <rect id="Rectangle" fill="#FFFFFF" x="0" y="40.5" width="6" height="23"></rect>
        <polygon id="Rectangle" fill="#B1B1B1" transform="translate(1.025048, 21.267674) scale(-1, 1) translate(-1.025048, -21.267674) " points="0.0250479392 2.25580782 2.02058516 2.04053337 2.02504794 40.4948155 0.0250479392 40.4948155"></polygon>
        <polygon id="Rectangle" fill="#B1B1B1" transform="translate(1.053069, 82.753474) scale(-1, -1) translate(-1.053069, -82.753474) " points="0.0530693169 63.7052407 2.04860654 63.4895545 2.05306932 102.017393 0.0530693169 102.017393"></polygon>
        <polygon id="Triangle" fill="#666666" points="24 6 28 14 20 14"></polygon>
        <polygon id="Triangle" fill="#666666" transform="translate(24.000000, 94.000000) scale(1, -1) translate(-24.000000, -94.000000) " points="24 90 28 98 20 98"></polygon>
    </g>
</svg>