<?xml version="1.0" encoding="UTF-8"?>
<svg width="24px" height="24px" viewBox="0 0 24 24" version="1.1" xmlns="http://www.w3.org/2000/svg" xmlns:xlink="http://www.w3.org/1999/xlink">
    <!-- Generator: Sketch 64 (93537) - https://sketch.com -->
    <title>115</title>
    <desc>Created with Sketch.</desc>
    <g id="115" stroke="none" stroke-width="1" fill="none" fill-rule="evenodd">
        <g id="Group" fill="#666666">
            <g id="B_WC_I" transform="translate(3.500000, 0.000000)">
                <path d="M13.2620502,2.49555677 C13.5956649,2.49555677 13.8761505,2.38187846 14.1041008,2.15363141 C14.3489692,1.90876299 14.4718486,1.61937304 14.4718486,1.28635198 C14.4718486,0.953330933 14.3489692,0.673142098 14.1041008,0.445191859 C13.8761505,0.199433008 13.5956649,0.0768503928 13.2620502,0.0768503928 C12.9118142,0.0768503928 12.6224242,0.199433008 12.3947708,0.445191859 C12.1668205,0.673142098 12.0525486,0.953330933 12.0525486,1.28635198 C12.0525486,1.61937304 12.1668205,1.90876299 12.3947708,2.15363141 C12.6224242,2.38187846 12.9118142,2.49555677 13.2620502,2.49555677" id="Fill-4"></path>
                <polygon id="Fill-5" points="8.63448227 3.31059759 9.02894303 3.31059759 9.02894303 1.86453827 8.63448227 1.86453827"></polygon>
                <polygon id="Fill-6" points="8.63448227 6.28226138 9.02894303 6.28226138 9.02894303 4.86232135 8.63448227 4.86232135"></polygon>
                <path d="M15.7867178,3.54745214 C15.4887204,3.21443109 15.0500349,3.04821737 14.4718486,3.04821737 L12.0525486,3.04821737 C11.4918741,3.04821737 11.0451748,3.21443109 10.7115601,3.54745214 C10.3960508,3.88047319 10.2387414,4.32746936 10.2387414,4.88844065 L10.2387414,9.20020252 C10.2387414,9.34089056 10.2912768,9.46317636 10.3960508,9.56854399 C10.5014185,9.67391161 10.6240011,9.72644702 10.7649859,9.72644702 C10.9044867,9.72644702 11.0184618,9.67391161 11.1063177,9.56854399 C11.2113885,9.46317636 11.2642207,9.34089056 11.2642207,9.20020252 L11.2642207,5.09858228 L11.7370394,5.09858228 L11.7370394,16.3254283 C11.7370394,16.5008432 11.7987759,16.6501387 11.9210617,16.7724245 C12.0439411,16.8953039 12.1929398,16.9567436 12.3680579,16.9567436 C12.5609845,16.9567436 12.7099832,16.8953039 12.8153508,16.7724245 C12.9379335,16.6501387 12.9993732,16.5008432 12.9993732,16.3254283 L12.9993732,9.12125101 L13.4992016,9.12125101 L13.4992016,16.3254283 C13.4992016,16.5008432 13.5606413,16.6501387 13.6832239,16.7724245 C13.8058065,16.8953039 13.9545084,16.9567436 14.1299232,16.9567436 C14.3053381,16.9567436 14.4537432,16.8953039 14.5766226,16.7724245 C14.699502,16.6501387 14.7606449,16.5008432 14.7606449,16.3254283 L14.7606449,5.09858228 L15.234354,5.09858228 L15.234354,9.20020252 C15.234354,9.34089056 15.2868894,9.46317636 15.3916634,9.56854399 C15.4973279,9.67391161 15.6202073,9.72644702 15.7600049,9.72644702 C15.9000993,9.72644702 16.0143712,9.67391161 16.1016334,9.56854399 C16.2070011,9.46317636 16.2595365,9.34089056 16.2595365,9.20020252 L16.2595365,4.88844065 C16.2595365,4.30995756 16.1016334,3.86296139 15.7867178,3.54745214" id="Fill-7"></path>
                <path d="M3.92825963,2.49555677 C4.26128068,2.49555677 4.54176633,2.38187846 4.76971657,2.15363141 C4.99737,1.90876299 5.11134512,1.61937304 5.11134512,1.28635198 C5.11134512,0.953330933 4.99737,0.673142098 4.76971657,0.445191859 C4.54176633,0.199433008 4.26128068,0.0768503928 3.92825963,0.0768503928 C3.57772678,0.0768503928 3.28863364,0.199433008 3.0606834,0.445191859 C2.83302997,0.673142098 2.71935166,0.953330933 2.71935166,1.28635198 C2.71935166,1.61937304 2.83302997,1.90876299 3.0606834,2.15363141 C3.28863364,2.38187846 3.57772678,2.49555677 3.92825963,2.49555677" id="Fill-8"></path>
                <polygon id="Fill-9" points="8.63448227 9.27915404 9.02894303 9.27915404 9.02894303 7.83309471 8.63448227 7.83309471"></polygon>
                <polygon id="Fill-10" points="8.63448227 12.2499274 9.02894303 12.2499274 9.02894303 10.8302842 8.63448227 10.8302842"></polygon>
                <polygon id="Fill-11" points="8.63448227 15.2474137 9.02894303 15.2474137 9.02894303 13.8277704 8.63448227 13.8277704"></polygon>
                <path d="M6.11070508,4.23130285 C5.98782566,3.86296139 5.80380333,3.56466713 5.55834129,3.33731051 C5.31317606,3.10936027 4.9451314,2.99538515 4.45420732,2.99538515 L3.34977654,2.99538515 C2.89417287,2.99538515 2.53503252,3.10936027 2.27176187,3.33731051 C2.00908484,3.54745214 1.8161582,3.84574639 1.6938724,4.23130285 L0.326467776,8.72679024 C0.291147362,8.86718147 0.308955974,9.0075727 0.379003183,9.14766711 C0.449050392,9.28776153 0.554418015,9.37561735 0.694215622,9.41064096 C0.83460685,9.44566456 0.974701267,9.42844957 1.1150925,9.35780874 C1.25518691,9.27054654 1.34304273,9.15657142 1.37776953,9.01618019 L2.42996171,5.54587526 C2.4646885,5.44050763 2.54393683,5.38767542 2.66622263,5.38767542 C2.82412566,5.38767542 2.90307718,5.47553124 2.90307718,5.65094607 L2.90307718,5.70348148 L1.03614098,12.1451534 L2.48249712,12.1451534 L2.48249712,16.3521413 C2.48249712,16.5275561 2.53503252,16.676258 2.64010334,16.7991374 C2.76268595,16.9039114 2.90307718,16.9567436 3.0606834,16.9567436 C3.23580142,16.9567436 3.37619265,16.9039114 3.48126346,16.7991374 C3.60414289,16.676258 3.6655826,16.5275561 3.6655826,16.3521413 L3.6655826,12.1451534 L4.16511418,12.1451534 L4.16511418,16.3521413 C4.16511418,16.5275561 4.21764958,16.676258 4.3227204,16.7991374 C4.44559982,16.9039114 4.59430174,16.9567436 4.76971657,16.9567436 C4.9276196,16.9567436 5.06771402,16.9039114 5.19059344,16.7991374 C5.31317606,16.676258 5.37461577,16.5275561 5.37461577,16.3521413 L5.37461577,12.1451534 L6.7945558,12.1451534 L4.9537389,5.70348148 C4.93593028,5.66816106 4.9276196,5.65094607 4.9276196,5.65094607 C4.9276196,5.47553124 5.0062743,5.38767542 5.16388052,5.38767542 C5.30456856,5.38767542 5.38292645,5.44050763 5.40073507,5.54587526 L6.47874974,9.01618019 C6.51407015,9.15657142 6.59242805,9.27054654 6.71560428,9.35780874 C6.8556987,9.42844957 6.99579312,9.44566456 7.13618434,9.41064096 C7.27627876,9.37561735 7.38134957,9.28776153 7.45169359,9.14766711 C7.5217408,9.0075727 7.53895579,8.86718147 7.504229,8.72679024 L6.11070508,4.23130285" id="Fill-12"></path>
            </g>
            <path d="M9.282,22.8 L10.224,19.416 L11.16,22.8 L11.904,22.8 L13.014,18.798 L12.414,18.798 L11.526,22.176 L10.596,18.798 L9.888,18.798 L8.946,22.176 L8.064,18.798 L7.416,18.798 L8.532,22.8 L9.282,22.8 Z M15.462,22.866 C15.774,22.866 16.158,22.818 16.44,22.692 L16.404,22.182 C16.134,22.308 15.828,22.356 15.522,22.356 C14.568,22.356 14.028,21.726 14.028,20.802 C14.028,19.908 14.598,19.248 15.534,19.248 C15.816,19.248 16.146,19.302 16.392,19.416 L16.428,18.888 C16.146,18.786 15.768,18.738 15.462,18.738 C14.238,18.738 13.344,19.578 13.344,20.802 C13.344,22.086 14.19,22.866 15.462,22.866 Z" id="WC" fill-rule="nonzero"></path>
        </g>
    </g>
</svg>