<svg width="20" height="20" viewBox="0 0 20 20" fill="none" xmlns="http://www.w3.org/2000/svg">
<path fill-rule="evenodd" clip-rule="evenodd" d="M4 3H16C17.1046 3 18 3.89543 18 5V20H4V3Z" fill="#1D451D"/>
<path fill-rule="evenodd" clip-rule="evenodd" d="M5 4H16C16.5523 4 17 4.44772 17 5V20H5V4Z" fill="#6D8E6D"/>
<path d="M4 6H18C19.1046 6 20 6.89543 20 8V16C20 17.1046 19.1046 18 18 18H4V6Z" fill="#1D451D"/>
<path d="M5 7H18C18.5523 7 19 7.44772 19 8V16C19 16.5523 18.5523 17 18 17H5V7Z" fill="#C6F9C6"/>
<path d="M2 5H3C4.65685 5 6 6.34315 6 8V16C6 17.6569 4.65685 19 3 19H2V5Z" fill="#1D451D"/>
<path d="M3 6C4.10457 6 5 6.89543 5 8V16C5 17.1046 4.10457 18 3 18V6Z" fill="#6D8E6D"/>
</svg>
