<?xml version="1.0" encoding="UTF-8"?>
<svg width="24px" height="24px" viewBox="0 0 24 24" version="1.1" xmlns="http://www.w3.org/2000/svg" xmlns:xlink="http://www.w3.org/1999/xlink">
    <!-- Generator: Sketch 64 (93537) - https://sketch.com -->
    <title>112</title>
    <desc>Created with Sketch.</desc>
    <g id="112" stroke="none" stroke-width="1" fill="none" fill-rule="evenodd">
        <path d="M19.6363636,8.85663287 C19.6363636,7.42683529 18.9908999,6.13132809 17.9697501,5.24081881 L14.367959,8.85663287 L19.6363636,8.85663287 Z M17.5667525,4.89020546 C16.786855,4.35091717 15.819418,4 14.8243659,4 L13.6150697,4 L13.6150697,8.85663287 L17.5667525,4.89020546 Z M19.6099624,9.39622498 L6.70645264,9.39622498 L5.12055998,5.9159166 C5.01313441,5.72663401 4.79767636,5.64612054 4.58282522,5.72663401 C4.39467875,5.83449166 4.31426131,6.05081463 4.39467875,6.26652995 L6.76016543,11.3659185 C7.37862108,12.6878584 8.58822081,13.7132657 10.1204007,13.7132657 C10.1204007,13.7132657 14.7982682,13.7132657 14.8243659,13.7132657 C17.270877,13.6862254 19.3407916,11.797653 19.6099624,9.39622498 Z M18.9644987,17.328776 C18.9644987,15.8716342 17.7813001,14.6575519 16.3031365,14.6575519 C14.8516775,14.6575519 13.668479,15.8716342 13.668479,17.328776 C13.668479,18.8126543 14.8516775,20 16.3031365,20 C17.7813001,20 18.9644987,18.8126543 18.9644987,17.328776 Z M11.733605,17.328776 C11.733605,15.8716342 10.5504064,14.6575519 9.07224278,14.6575519 C7.59347221,14.6575519 6.41057715,15.8716342 6.41057715,17.328776 C6.41057715,18.8126543 7.59347221,20 9.07224278,20 C10.5504064,20 11.733605,18.8126543 11.733605,17.328776 Z M18.2656256,17.328776 C18.2656256,18.4079602 17.4056141,19.2984695 16.3031365,19.2984695 C15.2279704,19.2984695 14.367959,18.4079602 14.367959,17.328776 C14.367959,16.2495917 15.2279704,15.3861228 16.3031365,15.3861228 C17.4056141,15.3861228 18.2656256,16.2495917 18.2656256,17.328776 Z M11.0347319,17.328776 C11.0347319,18.4079602 10.1474088,19.2984695 9.07224278,19.2984695 C7.99677328,19.2984695 7.10975371,18.4079602 7.10975371,17.328776 C7.10975371,16.2495917 7.99677328,15.3861228 9.07224278,15.3861228 C10.1474088,15.3861228 11.0347319,16.2495917 11.0347319,17.328776 L11.0347319,17.328776 Z" id="Z_Kinderwagen_a" fill="#666666"></path>
    </g>
</svg>