<?xml version="1.0" encoding="UTF-8"?>
<svg width="24px" height="24px" viewBox="0 0 24 24" version="1.1" xmlns="http://www.w3.org/2000/svg" xmlns:xlink="http://www.w3.org/1999/xlink">
    <!-- Generator: Sketch 64 (93537) - https://sketch.com -->
    <title>12_L_2</title>
    <desc>Created with Sketch.</desc>
    <g id="12_L_2" stroke="none" stroke-width="1" fill="none" fill-rule="evenodd">
        <g id="Business_First" transform="translate(13.500000, 12.000000) scale(-1, 1) translate(-13.500000, -12.000000) translate(3.000000, 1.000000)">
            <rect id=".availableDark" fill="#666666" x="4" y="2" width="17" height="18" rx="2"></rect>
            <rect id=".availableLight" fill="#F4F4F4" x="5" y="3" width="15" height="16" rx="1"></rect>
            <path d="M4,0 L16,0 C17.1045695,-2.02906125e-16 18,0.8954305 18,2 L18,3 C18,4.1045695 17.1045695,5 16,5 L4,5 L4,5 L4,0 Z" id=".availableDark" fill="#666666"></path>
            <path d="M5,1 L16,1 C16.5522847,1 17,1.44771525 17,2 L17,3 C17,3.55228475 16.5522847,4 16,4 L5,4 L5,4 L5,1 Z" id=".availableMedium" fill="#D7D7D7"></path>
            <path d="M4,17 L16,17 C17.1045695,17 18,17.8954305 18,19 L18,20 C18,21.1045695 17.1045695,22 16,22 L4,22 L4,22 L4,17 Z" id=".availableDark" fill="#666666"></path>
            <path d="M5,18 L16,18 C16.5522847,18 17,18.4477153 17,19 L17,20 C17,20.5522847 16.5522847,21 16,21 L5,21 L5,21 L5,18 Z" id=".availableMedium" fill="#D7D7D7"></path>
            <path d="M0,3 L3,3 C4.65685425,3 6,4.34314575 6,6 L6,16 C6,17.6568542 4.65685425,19 3,19 L0,19 L0,19 L0,3 Z" id=".availableDark" fill="#666666"></path>
            <path d="M1,4 L3,4 C4.1045695,4 5,4.8954305 5,6 L5,16 C5,17.1045695 4.1045695,18 3,18 L1,18 L1,18 L1,4 Z" id=".availableMedium" fill="#D7D7D7"></path>
        </g>
    </g>
</svg>