<?xml version="1.0" encoding="UTF-8"?>
<svg width="20px" height="20px" viewBox="0 0 20 20" version="1.1" xmlns="http://www.w3.org/2000/svg" xmlns:xlink="http://www.w3.org/1999/xlink">
    <!-- Generator: Sketch 64 (93537) - https://sketch.com -->
    <title>109</title>
    <desc>Created with Sketch.</desc>
    <g id="109" stroke="none" stroke-width="1" fill="none" fill-rule="evenodd">
        <rect id="Rectangle" fill="#F4F4F4" x="0" y="0" width="20" height="20"></rect>
        <g id="Group-5">
            <rect id="Background" fill="#FFFFFF" x="0" y="0" width="20" height="20"></rect>
            <path d="M8.58037578,5.7357631 C8.74043145,5.5785877 8.93180237,5.5 9.15448852,5.5 L10.8246347,5.5 C11.0473208,5.5 11.2386917,5.5785877 11.3987474,5.7357631 C11.5588031,5.8929385 11.6388309,6.08769932 11.6388309,6.32004556 L11.6388309,6.73006834 L10.8246347,6.73006834 L10.8246347,6.32004556 L9.15448852,6.32004556 L9.15448852,6.73006834 L8.34029228,6.73006834 L8.34029228,6.32004556 C8.34029228,6.08769932 8.42032011,5.8929385 8.58037578,5.7357631 L8.58037578,5.7357631 Z M5.25052192,14.2539863 C5.08350731,14.0899772 5,13.8986333 5,13.6799544 L5,7.96013667 C5,7.72779043 5.08350731,7.53302961 5.25052192,7.37585421 C5.41753653,7.21867882 5.61238692,7.14009112 5.83507307,7.14009112 L6.2526096,7.14009112 L6.2526096,14.5 L5.83507307,14.5 C5.61238692,14.5 5.41753653,14.4179954 5.25052192,14.2539863 L5.25052192,14.2539863 Z M7.06680585,14.5 L7.06680585,7.14009112 L12.9123173,7.14009112 L12.9123173,14.5 L7.06680585,14.5 Z M14.7599165,7.37585421 C14.9199722,7.53302961 15,7.72779043 15,7.96013667 L15,13.6799544 C15,13.8986333 14.9199722,14.0899772 14.7599165,14.2539863 C14.5998608,14.4179954 14.401531,14.5 14.1649269,14.5 L13.7473904,14.5 L13.7473904,7.14009112 L14.1649269,7.14009112 C14.401531,7.14009112 14.5998608,7.21867882 14.7599165,7.37585421 L14.7599165,7.37585421 Z" id="Shape" fill="#666666"></path>
        </g>
        <g id="Group" transform="translate(0.000000, -0.500000)" fill="#B1B1B1">
            <rect id="Rectangle" x="0" y="0.5" width="1" height="20"></rect>
            <rect id="Rectangle" x="19" y="0.5" width="1" height="20"></rect>
            <rect id="Rectangle" transform="translate(10.000000, 1.000000) rotate(-90.000000) translate(-10.000000, -1.000000) " x="9.5" y="-9" width="1" height="20"></rect>
            <rect id="Rectangle" transform="translate(10.000000, 20.000000) rotate(-90.000000) translate(-10.000000, -20.000000) " x="9.5" y="10" width="1" height="20"></rect>
        </g>
    </g>
</svg>