<svg width="20" height="20" viewBox="0 0 20 20" fill="none" xmlns="http://www.w3.org/2000/svg">
<path fill-rule="evenodd" clip-rule="evenodd" d="M15 17.5H5C3.61917 17.5 2.5 16.3808 2.5 15V5C2.5 3.61917 3.61917 2.5 5 2.5H15C16.3808 2.5 17.5 3.61917 17.5 5V15C17.5 16.3808 16.3808 17.5 15 17.5Z" stroke="#717171" stroke-width="1.25" stroke-linecap="round" stroke-linejoin="round"/>
<path d="M11.0099 7.68619C10.9261 7.56934 10.791 7.5 10.6472 7.5H10.6031C10.4107 7.5 10.2401 7.62326 10.1796 7.80586L9.22062 10.6998L8.25719 7.80527C8.19649 7.62301 8.02597 7.5 7.83382 7.5H7.80519C7.80342 7.5 7.80157 7.5001 7.79986 7.5001C7.79802 7.5001 7.79621 7.5 7.79446 7.5H7.75971C7.56731 7.5 7.39662 7.62326 7.33609 7.80586L6.37716 10.6998L5.41377 7.80527C5.3531 7.62301 5.18251 7.5 4.9904 7.5H4.94624C4.80239 7.5 4.66736 7.56934 4.58353 7.68619C4.4997 7.80311 4.47748 7.95329 4.52363 8.08947L5.92112 12.2112C5.98252 12.3923 6.15248 12.5141 6.34376 12.5141H6.36222C6.36755 12.5141 6.37277 12.5139 6.37806 12.5136C6.38332 12.5139 6.38858 12.5141 6.39388 12.5141H6.40621C6.59776 12.5141 6.76793 12.3919 6.82909 12.2104L7.79889 9.33096L8.76426 12.2098C8.82525 12.3916 8.99559 12.5141 9.18736 12.5141H9.20571C9.21104 12.5141 9.21626 12.5139 9.22159 12.5136C9.22682 12.5139 9.23211 12.5141 9.2374 12.5141H9.24977C9.44101 12.5141 9.61094 12.3923 9.67238 12.2112L11.0699 8.08947C11.116 7.95329 11.0937 7.80315 11.0099 7.68619Z" fill="#717171"/>
<path d="M15.3634 11.2189C15.1978 11.0651 14.9433 11.0595 14.771 11.2057C14.4742 11.4577 14.0914 11.5964 13.6933 11.5964C12.7853 11.5964 12.0467 10.8821 12.0467 10.0041C12.0467 9.12931 12.7853 8.41769 13.6933 8.41769C14.0953 8.41769 14.4777 8.55408 14.7702 8.80175C14.9474 8.95172 15.2099 8.94088 15.3741 8.7767L15.389 8.76183C15.4776 8.6733 15.5248 8.55161 15.5192 8.4265C15.5136 8.3014 15.4558 8.18438 15.3597 8.10406C14.894 7.71454 14.3021 7.5 13.6932 7.5C12.2793 7.5 11.1289 8.62332 11.1289 10.0041C11.1289 11.3881 12.2793 12.5142 13.6932 12.5142C14.3011 12.5142 14.8946 12.298 15.3643 11.9054C15.4626 11.8232 15.5208 11.7028 15.5241 11.5747C15.5275 11.4466 15.4756 11.3232 15.3818 11.2361L15.3634 11.2189Z" fill="#717171"/>
</svg>
